<?xml version="1.0" encoding="UTF-8"?>
<svg id="Layer_1" xmlns="http://www.w3.org/2000/svg" version="1.1" viewBox="0 0 1377.25 747.54">
  <!-- Generator: Adobe Illustrator 29.2.1, SVG Export Plug-In . SVG Version: 2.1.0 Build 116)  -->
  <defs>
    <style>
      .st0 {
        fill: #fff;
      }

      .st1 {
        fill: #7dd0a0;
      }

      .st2 {
        fill: #19462c;
      }
    </style>
  </defs>
  <path class="st1" d="M641.95,560.46l-34.25-17.21c-44.14-22.17-76.53-62.35-88.84-110.18l-2.54-9.88c-3.58-13.92-5.39-28.24-5.39-42.61v-231.96h0v232.45c0,14.37,1.81,28.69,5.39,42.61l2.54,9.88c12.31,47.83,44.7,88.01,88.84,110.18l34.25,17.21c1.79.9,3.56,1.84,5.31,2.8v-.49c-1.75-.96-3.52-1.9-5.31-2.8Z"/>
  <path class="st1" d="M517.93,155.13v225.45c0,13.78,1.74,27.53,5.17,40.87l2.54,9.88c11.81,45.89,42.86,84.4,85.2,105.67l34.25,17.21c.7.35,1.43.73,2.17,1.11V155.13h-129.33Z"/>
  <path class="st1" d="M725.61,155.13v400.19c.74-.39,1.47-.76,2.17-1.11l34.25-17.21c42.34-21.27,73.39-59.79,85.2-105.67l2.54-9.88c3.43-13.34,5.17-27.09,5.17-40.87v-225.45h-129.33Z"/>
  <path class="st1" d="M854,433.07c-12.31,47.83-44.7,88.01-88.84,110.18l-34.25,17.21c-1.79.9-3.56,1.84-5.31,2.8h0v.49c1.75-.96,3.52-1.9,5.31-2.8l34.25-17.21c44.14-22.17,76.53-62.35,88.84-110.18l2.54-9.88c3.58-13.92,5.39-28.24,5.39-42.61v-.48c0,14.37-1.81,28.69-5.39,42.6l-2.54,9.88Z"/>
  <path class="st2" d="M705.26,576.33l-18.83,14.08-18.83-14.08c-6.46-4.83-13.27-9.2-20.34-13.07,0,0,0,0,0,0v.49c7.08,3.87,13.88,8.23,20.34,13.07l18.83,14.08,18.83-14.08c6.46-4.84,13.27-9.2,20.34-13.07v-.49c-7.08,3.87-13.88,8.23-20.34,13.07Z"/>
  <path class="st2" d="M647.26,155.13h0v400.19c1.07.56,2.17,1.15,3.36,1.8,7.38,4.04,14.51,8.62,21.18,13.6l14.64,10.95,14.64-10.95c6.67-4.99,13.79-9.56,21.18-13.6,1.19-.65,2.29-1.24,3.36-1.8V155.13h-78.34Z"/>
  <path class="st2" d="M861.94,148.13h-351.01v232.45c0,14.37,1.81,28.69,5.39,42.61l2.54,9.88c12.31,47.83,44.7,88.01,88.84,110.18l34.25,17.21c1.79.9,3.56,1.84,5.31,2.8,0,0,0,0,0,0,7.08,3.87,13.88,8.23,20.34,13.07l18.83,14.08,18.83-14.08c6.46-4.83,13.27-9.2,20.34-13.07h0c1.75-.96,3.52-1.9,5.31-2.8l34.25-17.21c44.14-22.17,76.53-62.35,88.84-110.18l2.54-9.88c3.58-13.92,5.39-28.23,5.39-42.6,0,0,0,0,0,0v-232.45ZM854.94,380.58c0,13.78-1.74,27.53-5.17,40.87l-2.54,9.88c-11.81,45.89-42.86,84.4-85.2,105.67l-34.25,17.21c-.7.35-1.43.73-2.17,1.11-1.07.56-2.17,1.15-3.36,1.8-7.39,4.04-14.51,8.62-21.18,13.6l-14.64,10.95-14.64-10.95c-6.67-4.99-13.79-9.56-21.18-13.6-1.19-.65-2.29-1.24-3.36-1.8-.74-.39-1.47-.76-2.17-1.11l-34.25-17.21c-42.34-21.27-73.39-59.79-85.2-105.67l-2.54-9.88c-3.43-13.34-5.17-27.09-5.17-40.87v-225.45h337.01v225.45Z"/>
  <polygon class="st2" points="904.56 462.52 904.56 462.52 904.56 462.52 904.56 462.52"/>
  <path class="st2" d="M1055.04,313.9h0v-13.89c0-31.19-25.29-56.48-56.48-56.48H329.44v113.18c0,42.6,42.68,77.13,95.33,77.13h630.27v-119.95Z"/>
  <polygon class="st1" points="904.56 433.85 904.56 462.52 1055.04 433.85 904.56 433.85"/>
  <polygon class="st2" points="1228.62 313.9 1063.88 313.9 1055.04 433.85 904.56 462.52 904.56 462.52 1228.62 462.52 1209.59 389.96 1228.62 313.9"/>
  <path class="st0" d="M499.07,378.77v-32.35h14.89v4.49h-8.26v8.65h7.01v4.98h-7.01v9.85h8.26v4.38h-14.89ZM503.23,344.07l4.27-5.14h5.75l-6.51,5.14h-3.5Z"/>
  <path class="st0" d="M529.17,378.77v-32.35h5.53l6.73,19.59v-19.59h5.58v32.35h-5.53l-6.73-18.28v18.28h-5.58Z"/>
  <path class="st0" d="M551.06,378.77l5.8-32.35h9.09l5.69,32.35h-7.12l-.98-5.97h-4.71l-.93,5.97h-6.84ZM558.94,369.63h4.54l-2.24-17.57-2.3,17.57Z"/>
  <path class="st0" d="M594.74,407.45l-9.21-60.48h12.28l5.73,45.13,6.35-45.13h9.82l6.24,45.13,5.83-45.13h12.18l-9.11,60.48h-13.82l-6.24-35.1-6.14,35.1h-13.92Z"/>
  <path class="st0" d="M658.91,407.45v-60.48h11.87v60.48h-11.87Z"/>
  <path class="st0" d="M688.89,407.45v-60.48h10.34l12.59,36.64v-36.64h10.44v60.48h-10.34l-12.59-34.18v34.18h-10.44Z"/>
  <path class="st0" d="M738.93,407.45v-60.48h10.34l12.59,36.64v-36.64h10.44v60.48h-10.34l-12.59-34.18v34.18h-10.44Z"/>
  <path class="st0" d="M790.66,407.45v-60.48h27.83v8.39h-15.45v16.17h13.1v9.31h-13.1v18.42h15.45v8.19h-27.83Z"/>
  <path class="st0" d="M836.87,407.45v-60.48h22.1c4.02,0,7.06.91,9.11,2.71,2.05,1.81,3.07,4.32,3.07,7.52v9.42c0,3.21-.85,5.9-2.56,8.08-1.71,2.18-4.37,3.45-7.98,3.79,2.32.34,3.97,1.11,4.96,2.3.99,1.19,1.86,3.12,2.61,5.78l5.73,20.88h-13.2l-4.4-20.06c-.41-1.64-.87-3.02-1.38-4.15-.51-1.13-1.25-1.69-2.2-1.69h-3.48v25.89h-12.38ZM849.25,373.27h4.91c1.91,0,3.28-.53,4.09-1.59.82-1.06,1.23-2.75,1.23-5.06v-7.27c0-2.18-.38-3.72-1.13-4.61-.75-.89-1.91-1.33-3.48-1.33h-5.63v19.85Z"/>
  <path class="st0" d="M516.05,329.69c-3.34,0-6.29-.39-8.85-1.18-2.56-.78-4.57-2.42-6.04-4.91-1.47-2.49-2.2-6.19-2.2-11.1v-31.72c0-3.62.73-6.41,2.2-8.39,1.47-1.98,3.5-3.36,6.09-4.14,2.59-.78,5.56-1.18,8.9-1.18s6.36.41,8.85,1.23c2.49.82,4.42,2.22,5.78,4.2,1.36,1.98,2.05,4.74,2.05,8.29v12.48h-11.87v-13c0-1.64-.2-2.88-.61-3.74-.41-.85-.97-1.41-1.69-1.69-.72-.27-1.55-.41-2.51-.41s-1.81.14-2.56.41c-.75.27-1.33.84-1.74,1.69-.41.85-.61,2.1-.61,3.74v36.64c0,1.57.2,2.78.61,3.63.41.85.99,1.43,1.74,1.74.75.31,1.6.46,2.56.46s1.79-.15,2.51-.46,1.28-.89,1.69-1.74c.41-.85.61-2.06.61-3.63v-11.97h11.87v7.47c0,4.98-.68,8.72-2.05,11.21-1.37,2.49-3.29,4.13-5.78,4.91-2.49.78-5.47,1.18-8.95,1.18Z"/>
  <path class="st0" d="M539.38,328.46l10.85-60.48h16.99l10.64,60.48h-13.3l-1.84-11.16h-8.8l-1.74,11.16h-12.79ZM554.11,311.37h8.49l-4.19-32.85-4.3,32.85Z"/>
  <path class="st0" d="M642.94,328.46v-60.48h21.49c3.82,0,6.74.91,8.75,2.71,2.01,1.81,3.02,4.32,3.02,7.52v6.86c0,1.78-.26,3.39-.77,4.86s-1.28,2.71-2.3,3.73c-.75.75-1.71,1.33-2.86,1.74-1.16.41-2.29.65-3.38.72v.1c1.16,0,2.28.14,3.38.41,1.09.27,2.11.82,3.07,1.64,1.16.89,2.08,2.1,2.76,3.63.68,1.54,1.02,3.43,1.02,5.68v8.29c0,3.28-.56,5.83-1.69,7.68-1.13,1.84-2.73,3.12-4.81,3.84-2.08.72-4.55,1.08-7.42,1.08h-20.26ZM654.91,293.77h4.81c1.57,0,2.81-.55,3.73-1.64.92-1.09,1.38-3,1.38-5.73v-6.04c0-2.12-.39-3.63-1.18-4.55-.79-.92-1.79-1.38-3.02-1.38h-5.73v19.34ZM654.91,322.22h5.53c1.02,0,1.86-.19,2.51-.56.65-.37,1.16-1.08,1.54-2.1.37-1.02.56-2.52.56-4.5v-7.16c0-2.73-.46-4.52-1.38-5.37-.92-.85-2.13-1.28-3.63-1.28h-5.12v20.98Z"/>
  <path class="st0" d="M687.05,328.46v-60.48h22.1c4.02,0,7.06.91,9.11,2.71,2.05,1.81,3.07,4.32,3.07,7.52v9.42c0,3.21-.85,5.9-2.56,8.08-1.71,2.18-4.37,3.45-7.98,3.79,2.32.34,3.97,1.11,4.96,2.3.99,1.19,1.86,3.12,2.61,5.78l5.73,20.88h-13.2l-4.4-20.06c-.41-1.64-.87-3.02-1.38-4.15-.51-1.13-1.24-1.69-2.2-1.69h-3.48v25.89h-12.38ZM699.43,294.28h4.91c1.91,0,3.28-.53,4.09-1.59.82-1.06,1.23-2.75,1.23-5.06v-7.27c0-2.18-.38-3.72-1.13-4.61-.75-.89-1.91-1.33-3.48-1.33h-5.63v19.85Z"/>
  <path class="st0" d="M732.58,328.46v-60.48h11.87v60.48h-11.87Z"/>
  <path class="st0" d="M755.61,328.46v-60.48h21.18c2.87,0,5.24.41,7.11,1.23s3.28,2.06,4.2,3.74,1.38,3.77,1.38,6.29v36.23c0,3.34-.58,5.97-1.74,7.88-1.16,1.91-2.81,3.24-4.96,3.99-2.15.75-4.69,1.13-7.62,1.13h-19.55ZM767.99,322.32h5.22c1.36,0,2.44-.41,3.22-1.23.78-.82,1.18-2.35,1.18-4.6v-35.92c0-2.25-.39-3.79-1.18-4.61-.79-.82-1.86-1.23-3.22-1.23h-5.22v47.59Z"/>
  <path class="st0" d="M812.61,329.59c-2.32,0-4.49-.38-6.5-1.13-2.01-.75-3.67-2.23-4.96-4.45-1.3-2.22-1.94-5.54-1.94-9.98v-33.16c0-3.55.7-6.31,2.1-8.29,1.4-1.98,3.36-3.36,5.88-4.14,2.52-.78,5.46-1.18,8.8-1.18s6.29.39,8.85,1.18c2.56.78,4.57,2.17,6.04,4.14,1.47,1.98,2.2,4.74,2.2,8.29v8.49h-11.56v-9.11c0-1.64-.22-2.88-.67-3.74-.44-.85-1.04-1.41-1.79-1.69-.75-.27-1.67-.41-2.76-.41-1.02,0-1.93.14-2.71.41-.79.27-1.4.84-1.84,1.69-.44.85-.66,2.1-.66,3.74v36.64c0,1.57.22,2.78.66,3.63.44.85,1.06,1.43,1.84,1.74.78.31,1.69.46,2.71.46,1.57,0,2.83-.48,3.79-1.43.96-.95,1.43-2.42,1.43-4.4v-12.08h-4.91v-6.75h16.48v30.39h-8.9l-.61-4.71c-.14.2-.27.41-.41.61-.14.2-.24.38-.31.51-.68,1.16-1.83,2.23-3.43,3.22-1.6.99-3.87,1.48-6.8,1.48Z"/>
  <path class="st0" d="M843.21,328.46v-60.48h27.83v8.39h-15.45v16.17h13.1v9.31h-13.1v18.42h15.45v8.19h-27.83Z"/>
  <path class="st0" d="M585.53,328.46v-60.48h14.84l8.29,39.09,8.39-39.09h14.74v60.48h-10.44v-45.23l-8.7,45.23h-8.08l-8.6-45.23v45.23h-10.44Z"/>
  <path class="st2" d="M453.63,334.5c0-79.46-64.65-144.1-144.11-144.1s-144.1,64.65-144.1,144.1,64.65,144.11,144.1,144.11,144.11-64.65,144.11-144.11ZM338.87,398.98c-5.96,3.11-12.19,3.5-18.81,0-27.23-17.18-16.21-69.95-16.21-69.95-26.2,27.44-45.72,53.57-54.77,66.12-1.73,2.39-4.7,3.82-7.9,3.82h-15.43c-3.01,0-5.4-2.44-4.73-5.04,0-.02.01-.04.02-.06,1.21-4.55,22.77-95.26,29.83-124.97h24.1c-7.81,24.4-20.17,85.64-20.17,85.64,11.38-14.4,52.57-59.5,57.98-65.26,5.42-5.76,10.84-1.92,10.84-1.92,10.84,6.24,10.84,2.88,3.25,34.07-16.73,68.8,5.51,60.22,5.51,60.22,14.57-3.52,48.49-83.28,60.57-112.75h19.01c-10.01,33.1-42.91,114.31-73.1,130.06Z"/>
  <path class="st1" d="M309.52,173.6c-88.72,0-160.9,72.18-160.9,160.9s72.18,160.9,160.9,160.9,160.9-72.18,160.9-160.9-72.18-160.9-160.9-160.9ZM165.42,334.5c0-79.46,64.65-144.1,144.1-144.1s144.11,64.65,144.11,144.1-64.65,144.11-144.11,144.11-144.1-64.65-144.1-144.11Z"/>
  <path class="st0" d="M392.96,268.92c-12.08,29.47-46,109.23-60.57,112.75,0,0-22.25,8.58-5.51-60.22,7.59-31.19,7.59-27.83-3.25-34.07,0,0-5.42-3.84-10.84,1.92-5.42,5.76-46.6,50.86-57.98,65.26,0,0,12.36-61.24,20.17-85.64h-24.1c-7.06,29.71-28.62,120.42-29.83,124.97,0,.02-.01.04-.02.06-.67,2.6,1.72,5.04,4.73,5.04h15.43c3.2,0,6.18-1.43,7.9-3.82,9.06-12.55,28.57-38.68,54.77-66.12,0,0-11.02,52.76,16.21,69.95,6.62,3.5,12.85,3.11,18.81,0,30.19-15.75,63.09-96.97,73.1-130.06h-19.01Z"/>
</svg>